# xmcd
#
# Track frame offsets:
#	150
#	13484
#	25862
#	48308
#	61523
#	68972
#	81411
#	93218
#	109952
#	133662
#	156218
#	175046
#	195819
#	209953
#
# Disc length: 2993 seconds
#
# Revision: 1
# Processed by: cddbd v1.5.2PL0 Copyright (c) Steve Scherf et al.
# Submitted via: audiograbber 1.83.01
#
DISCID=be0baf0e
DTITLE=Johnny Cash - Live From Austin Texas
DYEAR=1987
DGENRE=Country
TTITLE0=Ring of Fire
TTITLE1=Folsom Prison Blues
TTITLE2=Sunday Morning Coming Down
TTITLE3=I Walk the Line
TTITLE4=The Wall
TTITLE5=Long Black Veil
TTITLE6=Big River
TTITLE7=I'll Go Somewhere and Sing My Songs Again
TTITLE8=Let Him Roll
TTITLE9=Ballad of Barbara
TTITLE10=Sam Stone
TTITLE11=(Ghost) Riders in the Sky
TTITLE12=Where Did We Go Right? (with June Carter Cash)
TTITLE13=I Walk the Line (outro)
EXTD=The date listed is when it was recorded in Austin Texas, not necessarily t
EXTD=he release date.
EXTT0=
EXTT1=
EXTT2=
EXTT3=
EXTT4=
EXTT5=
EXTT6=
EXTT7=
EXTT8=
EXTT9=
EXTT10=
EXTT11=
EXTT12=
EXTT13=
PLAYORDER=
